<svg width="16" height="18" viewBox="0 0 16 18" fill="none" xmlns="http://www.w3.org/2000/svg">
<path d="M7.17783 17.6368C1.12375 10.2316 0 9.47155 0 6.75C0 3.02207 3.58171 0 8 0C12.4183 0 16 3.02207 16 6.75C16 9.47155 14.8763 10.2316 8.82217 17.6368C8.42488 18.1211 7.57508 18.121 7.17783 17.6368ZM8 9.5625C9.84096 9.5625 11.3333 8.30331 11.3333 6.75C11.3333 5.19669 9.84096 3.9375 8 3.9375C6.15904 3.9375 4.66667 5.19669 4.66667 6.75C4.66667 8.30331 6.15904 9.5625 8 9.5625Z" fill="#EB9A02"/>
</svg>
